<svg xmlns="http://www.w3.org/2000/svg" width="235" height="212" viewBox="0 0 235 212">
  <g id="Group_2" data-name="Group 2" transform="translate(-799 -264)">
    <g id="Path_2" data-name="Path 2" transform="translate(811 264)" fill="#ef1d2b">
      <path d="M 55 109 C 47.70959854125977 109 40.63781356811523 107.5723876953125 33.98107147216797 104.7568283081055 C 30.78157234191895 103.4035415649414 27.695556640625 101.728515625 24.80878639221191 99.77824401855469 C 21.94917106628418 97.84632873535156 19.26009941101074 95.62763214111328 16.81622886657715 93.18376922607422 C 14.37237167358398 90.73989868164062 12.15367126464844 88.05082702636719 10.22175693511963 85.19121551513672 C 8.271485328674316 82.304443359375 6.596457004547119 79.21842956542969 5.243171215057373 76.01892852783203 C 2.427614212036133 69.3621826171875 1 62.29040145874023 1 55 C 1 47.70959854125977 2.427614212036133 40.63781356811523 5.243171215057373 33.98107147216797 C 6.596457004547119 30.78157234191895 8.271485328674316 27.695556640625 10.22175693511963 24.80878639221191 C 12.15367126464844 21.94917106628418 14.37237167358398 19.26009941101074 16.81622886657715 16.81622886657715 C 19.26009941101074 14.37237167358398 21.94917106628418 12.15367126464844 24.80878639221191 10.22175693511963 C 27.695556640625 8.271485328674316 30.78157234191895 6.596457004547119 33.98107147216797 5.243171215057373 C 40.63781356811523 2.427614212036133 47.70959854125977 1 55 1 C 62.29040145874023 1 69.3621826171875 2.427614212036133 76.01892852783203 5.243171215057373 C 79.21842956542969 6.596457004547119 82.304443359375 8.271485328674316 85.19121551513672 10.22175693511963 C 88.05082702636719 12.15367126464844 90.73989868164062 14.37237167358398 93.18376922607422 16.81622886657715 C 95.62763214111328 19.26009941101074 97.84632873535156 21.94917106628418 99.77824401855469 24.80878639221191 C 101.728515625 27.695556640625 103.4035415649414 30.78157234191895 104.7568283081055 33.98107147216797 C 107.5723876953125 40.63781356811523 109 47.70959854125977 109 55 C 109 62.29040145874023 107.5723876953125 69.3621826171875 104.7568283081055 76.01892852783203 C 103.4035415649414 79.21842956542969 101.728515625 82.304443359375 99.77824401855469 85.19121551513672 C 97.84632873535156 88.05082702636719 95.62763214111328 90.73989868164062 93.18376922607422 93.18376922607422 C 90.73989868164062 95.62763214111328 88.05082702636719 97.84632873535156 85.19121551513672 99.77824401855469 C 82.304443359375 101.728515625 79.21842956542969 103.4035415649414 76.01892852783203 104.7568283081055 C 69.3621826171875 107.5723876953125 62.29040145874023 109 55 109 Z" stroke="none"/>
      <path d="M 55 2 C 47.84416961669922 2 40.9034423828125 3.401031494140625 34.37061309814453 6.1641845703125 C 28.05966186523438 8.83349609375 22.39141845703125 12.65525817871094 17.52333831787109 17.52333831787109 C 12.65525817871094 22.39141845703125 8.83349609375 28.05966186523438 6.1641845703125 34.37061309814453 C 3.401031494140625 40.9034423828125 2 47.84416961669922 2 55 C 2 62.15583038330078 3.401031494140625 69.0965576171875 6.1641845703125 75.62937927246094 C 8.83349609375 81.94033813476562 12.65525817871094 87.60858154296875 17.52333831787109 92.47666168212891 C 22.39141845703125 97.34474182128906 28.05966186523438 101.16650390625 34.37061309814453 103.8358154296875 C 40.9034423828125 106.5989685058594 47.84416961669922 108 55 108 C 62.15583038330078 108 69.0965576171875 106.5989685058594 75.62937927246094 103.8358154296875 C 81.94033813476562 101.16650390625 87.60858154296875 97.34474182128906 92.47666168212891 92.47666168212891 C 97.34474182128906 87.60858154296875 101.16650390625 81.94033813476562 103.8358154296875 75.62937927246094 C 106.5989685058594 69.0965576171875 108 62.15583038330078 108 55 C 108 47.84416961669922 106.5989685058594 40.9034423828125 103.8358154296875 34.37061309814453 C 101.16650390625 28.05966186523438 97.34474182128906 22.39141845703125 92.47666168212891 17.52333831787109 C 87.60858154296875 12.65525817871094 81.94033813476562 8.83349609375 75.62937927246094 6.1641845703125 C 69.0965576171875 3.401031494140625 62.15583038330078 2 55 2 M 55 0 C 85.37566375732422 0 110 24.62433624267578 110 55 C 110 85.37566375732422 85.37566375732422 110 55 110 C 24.62433624267578 110 0 85.37566375732422 0 55 C 0 24.62433624267578 24.62433624267578 0 55 0 Z" stroke="none" fill="#fff"/>
    </g>
    <g id="Path_1" data-name="Path 1" transform="translate(903 335)" fill="#0091ff">
      <path d="M 65.5 124 C 56.78639984130859 124 48.33438110351562 122.3719635009766 40.37870788574219 119.1611099243164 C 36.55588912963867 117.6182556152344 32.86889266967773 115.7087097167969 29.42014503479004 113.4854888916016 C 26.00476455688477 111.2837829589844 22.79327201843262 108.7554397583008 19.87485504150391 105.9706878662109 C 16.95725440979004 103.1867294311523 14.30861854553223 100.1236343383789 12.00250911712646 96.86650848388672 C 9.675127029418945 93.57929229736328 7.676290988922119 90.06545257568359 6.061527252197266 86.42258453369141 C 2.702945470809937 78.84568786621094 1 70.79698181152344 1 62.5 C 1 54.20301818847656 2.702945470809937 46.1543083190918 6.061527252197266 38.57741928100586 C 7.676290988922119 34.93454360961914 9.675127029418945 31.42070960998535 12.00250911712646 28.13349151611328 C 14.30861854553223 24.87636375427246 16.95725440979004 21.81327247619629 19.87485504150391 19.0293083190918 C 22.79327201843262 16.24456405639648 26.00476455688477 13.71621799468994 29.42014503479004 11.5145092010498 C 32.86889266967773 9.291291236877441 36.55588912963867 7.381745338439941 40.37870788574219 5.83889102935791 C 48.33438110351562 2.628036260604858 56.78639984130859 1 65.5 1 C 74.21360015869141 1 82.66561889648438 2.628036260604858 90.62129211425781 5.83889102935791 C 94.44410705566406 7.381745338439941 98.13111114501953 9.291291236877441 101.5798568725586 11.5145092010498 C 104.9952392578125 13.71621799468994 108.2067260742188 16.24456405639648 111.1251449584961 19.0293083190918 C 114.0427474975586 21.81327247619629 116.6913833618164 24.87636375427246 118.9974899291992 28.13349151611328 C 121.3248748779297 31.42070960998535 123.3237075805664 34.93454360961914 124.9384689331055 38.57741928100586 C 128.2970581054688 46.1543083190918 130 54.20301818847656 130 62.5 C 130 70.79698181152344 128.2970581054688 78.84568786621094 124.9384689331055 86.42258453369141 C 123.3237075805664 90.06545257568359 121.3248748779297 93.57929229736328 118.9974899291992 96.86650848388672 C 116.6913833618164 100.1236343383789 114.0427474975586 103.1867294311523 111.1251449584961 105.9706878662109 C 108.2067260742188 108.7554397583008 104.9952392578125 111.2837829589844 101.5798568725586 113.4854888916016 C 98.13111114501953 115.7087097167969 94.44410705566406 117.6182556152344 90.62129211425781 119.1611099243164 C 82.66561889648438 122.3719635009766 74.21360015869141 124 65.5 124 Z" stroke="none"/>
      <path d="M 65.5 2 C 56.91525268554688 2 48.58914184570312 3.603584289550781 40.75296020507812 6.766197204589844 C 36.98847198486328 8.285530090332031 33.35785675048828 10.16587066650391 29.96195983886719 12.35500335693359 C 26.59954833984375 14.52256011962891 23.43801879882812 17.01154327392578 20.56520080566406 19.75278472900391 C 17.69400024414062 22.49246978759766 15.08769226074219 25.50656127929688 12.81867218017578 28.71134185791016 C 10.52952575683594 31.94452667236328 8.563674926757812 35.40029144287109 6.975730895996094 38.98265075683594 C 3.674072265625 46.43112945556641 2 54.343505859375 2 62.5 C 2 70.656494140625 3.674072265625 78.56887817382812 6.975730895996094 86.01732635498047 C 8.563674926757812 89.59968566894531 10.52952575683594 93.05545043945312 12.81867218017578 96.28865051269531 C 15.08769226074219 99.49341583251953 17.69400024414062 102.5075225830078 20.56520080566406 105.247200012207 C 23.43801879882812 107.9884567260742 26.59954833984375 110.4774322509766 29.96195983886719 112.6449813842773 C 33.35785675048828 114.8341293334961 36.98847198486328 116.714469909668 40.75296020507812 118.2337799072266 C 48.58916473388672 121.3964157104492 56.91525268554688 123 65.5 123 C 74.08474731445312 123 82.41083526611328 121.3964157104492 90.24703979492188 118.2337799072266 C 94.01152801513672 116.714469909668 97.64215087890625 114.8341293334961 101.0380401611328 112.6449813842773 C 104.4004516601562 110.4774322509766 107.5619812011719 107.9884567260742 110.4347991943359 105.247200012207 C 113.3059997558594 102.5075225830078 115.9123077392578 99.49341583251953 118.1813278198242 96.28865051269531 C 120.4704742431641 93.05545043945312 122.4363250732422 89.59968566894531 124.0242767333984 86.01732635498047 C 127.325927734375 78.56887817382812 129 70.656494140625 129 62.5 C 129 54.343505859375 127.325927734375 46.43112945556641 124.0242767333984 38.98265075683594 C 122.4363250732422 35.40029144287109 120.4704742431641 31.94452667236328 118.1813278198242 28.71134185791016 C 115.9123077392578 25.50656127929688 113.3059997558594 22.49246978759766 110.4347991943359 19.75278472900391 C 107.5619812011719 17.01154327392578 104.4004516601562 14.52256011962891 101.0380401611328 12.35500335693359 C 97.64215087890625 10.16587066650391 94.01152801513672 8.285530090332031 90.24703979492188 6.766197204589844 C 82.41085815429688 3.603584289550781 74.08474731445312 2 65.5 2 M 65.5 0 C 101.6746520996094 0 131 27.98220062255859 131 62.5 C 131 97.01778411865234 101.6746520996094 125 65.5 125 C 29.32534790039062 125 0 97.01778411865234 0 62.5 C 0 27.98220062255859 29.32534790039062 0 65.5 0 Z" stroke="none" fill="#fff"/>
    </g>
    <g id="Ellipse_3" data-name="Ellipse 3" transform="translate(799 380)" fill="#ecfc00" stroke="#fff" stroke-width="2">
      <ellipse cx="50" cy="48" rx="50" ry="48" stroke="none"/>
      <ellipse cx="50" cy="48" rx="49" ry="47" fill="none"/>
    </g>
  </g>
</svg>
